# xmcd
#
# Track frame offsets:
#	150
#	16403
#	31785
#	45733
#	61498
#	77873
#	92159
#	108389
#	122664
#	132333
#	146796
#
# Disc length: 2100 seconds
#
# Revision: 1
# Processed by: cddbd v1.5.2PL0 Copyright (c) Steve Scherf et al.
# Submitted via: audiograbber 1.83.01
#
DISCID=9508320b
DTITLE=Bad Aces - Rope A Dope
DYEAR=2010
DGENRE=Rock
TTITLE0=Master - Monster
TTITLE1=More to score
TTITLE2=Blood Brothers
TTITLE3=One day star
TTITLE4=Chance to move
TTITLE5=Look around
TTITLE6=Silver ring
TTITLE7=East to west
TTITLE8=Another day
TTITLE9=Heart and soul
TTITLE10=Rope a dope
EXTD=
EXTT0=
EXTT1=
EXTT2=
EXTT3=
EXTT4=
EXTT5=
EXTT6=
EXTT7=
EXTT8=
EXTT9=
EXTT10=
PLAYORDER=
